<?xml version="1.0" encoding="UTF-8" standalone="no"?>
<svg
   xmlns:dc="http://purl.org/dc/elements/1.1/"
   xmlns:cc="http://creativecommons.org/ns#"
   xmlns:rdf="http://www.w3.org/1999/02/22-rdf-syntax-ns#"
   xmlns:svg="http://www.w3.org/2000/svg"
   xmlns="http://www.w3.org/2000/svg"
   version="1.1"
   id="svg3513"
   viewBox="0 0 492.61127 451.04"
   height="127.29351mm"
   width="139.02585mm">
  <defs
     id="defs3515" />
  <metadata
     id="metadata3518">
    <rdf:RDF>
      <cc:Work
         rdf:about="">
        <dc:format>image/svg+xml</dc:format>
        <dc:type
           rdf:resource="http://purl.org/dc/dcmitype/StillImage" />
        <dc:title></dc:title>
      </cc:Work>
    </rdf:RDF>
  </metadata>
  <g
     transform="translate(-160.83723,-46.842204)"
     id="layer1">
    <path
       id="path60"
       style="fill:#d6dad6;fill-opacity:1;fill-rule:evenodd;stroke:none"
       d="m 613.33223,497.8822 -412.3775,0 c -22.15662,0 -40.1175,-17.96125 -40.1175,-40.1175 l 0,-370.807496 c 0,-22.155 17.96088,-40.115 40.1175,-40.115 l 412.3775,0 c 22.155,0 40.11625,17.96 40.11625,40.115 l 0,370.807496 c 0,22.15625 -17.96125,40.1175 -40.11625,40.1175" />
    <path
       id="path62"
       style="fill:#b5bdb8;fill-opacity:1;fill-rule:nonzero;stroke:none"
       d="m 613.33223,497.8822 -159.88125,0 c -0.11875,-0.11875 -0.25,-0.2225 -0.3625,-0.3475 -0.4775,-0.47625 -0.88875,-1.015 -1.24,-1.59375 -0.73125,-0.43125 -1.38875,-0.97125 -1.95375,-1.6 -0.47625,-0.47625 -0.88875,-1.01375 -1.24,-1.5925 -0.73125,-0.43125 -1.38875,-0.9725 -1.95375,-1.60125 -0.47625,-0.475 -0.8875,-1.01375 -1.23875,-1.5925 -0.73125,-0.43125 -1.38875,-0.97125 -1.95375,-1.6 -0.47625,-0.475 -0.88875,-1.01375 -1.23875,-1.5925 -0.7325,-0.43125 -1.38875,-0.97125 -1.95375,-1.6 -0.4775,-0.47625 -0.88875,-1.01375 -1.24,-1.5925 -0.73125,-0.43125 -1.38875,-0.9725 -1.95375,-1.60125 -0.47625,-0.475 -0.88875,-1.01375 -1.23875,-1.5925 -0.7325,-0.43125 -1.38875,-0.97125 -1.95375,-1.6 -0.47625,-0.47625 -0.88875,-1.01375 -1.24,-1.5925 -0.73125,-0.4325 -1.38875,-0.9725 -1.95375,-1.60125 -0.47625,-0.47625 -0.88875,-1.01375 -1.23875,-1.5925 -0.7325,-0.43125 -1.38875,-0.97125 -1.95375,-1.6 -0.47625,-0.47625 -0.88875,-1.01375 -1.24,-1.59375 -0.73125,-0.43 -1.38875,-0.97125 -1.9525,-1.59875 -0.4775,-0.47625 -0.88875,-1.015 -1.24,-1.59375 -0.73125,-0.43125 -1.38875,-0.97125 -1.95375,-1.6 -0.47625,-0.475 -0.88875,-1.01375 -1.24,-1.5925 -0.73125,-0.43125 -1.3875,-0.9725 -1.95375,-1.60125 -0.47625,-0.475 -0.8875,-1.01375 -1.23875,-1.5925 -0.73125,-0.43125 -1.38875,-0.97125 -1.95375,-1.6 -0.47625,-0.47625 -0.88875,-1.01375 -1.24,-1.5925 -0.73125,-0.43125 -1.3875,-0.9725 -1.9525,-1.6 -0.4775,-0.47625 -0.88875,-1.015 -1.24,-1.59375 -0.73125,-0.43 -1.38875,-0.97125 -1.95375,-1.59875 -0.47625,-0.47625 -0.88875,-1.015 -1.24,-1.59375 -0.73125,-0.43125 -1.3875,-0.97125 -1.9525,-1.6 -0.4775,-0.47625 -0.88875,-1.01375 -1.24,-1.5925 -0.73125,-0.4325 -1.38875,-0.9725 -1.95375,-1.60125 -0.47625,-0.475 -0.88875,-1.01375 -1.23875,-1.5925 -0.7325,-0.43125 -1.38875,-0.9725 -1.955,-1.6 -0.47625,-0.47625 -0.8875,-1.01375 -1.23875,-1.59375 -0.73125,-0.43125 -1.38875,-0.97125 -1.9525,-1.6 -0.4775,-0.475 -0.89,-1.01375 -1.24,-1.5925 -0.7325,-0.43125 -1.38875,-0.97125 -1.95375,-1.6 -0.47625,-0.475 -0.88875,-1.01375 -1.24,-1.59375 -0.73125,-0.43 -1.38875,-0.97125 -1.9525,-1.59875 -0.4775,-0.47625 -0.88875,-1.01375 -1.24,-1.59375 -0.73125,-0.43125 -1.38875,-0.97125 -1.95375,-1.6 -0.4775,-0.47625 -0.88875,-1.01375 -1.24,-1.5925 -0.73125,-0.43125 -1.38875,-0.9725 -1.95375,-1.60125 -0.47625,-0.475 -0.8875,-1.01375 -1.23875,-1.5925 -0.73125,-0.43125 -1.38875,-0.97125 -1.95375,-1.6 -0.47625,-0.47625 -0.88875,-1.01375 -1.24,-1.5925 -0.73125,-0.43125 -1.3875,-0.9725 -1.9525,-1.6 -0.4775,-0.47625 -0.88875,-1.015 -1.24,-1.59375 -0.73125,-0.43 -1.38875,-0.97125 -1.95375,-1.59875 -0.47625,-0.47625 -0.88875,-1.015 -1.24,-1.59375 -0.73125,-0.43125 -1.38875,-0.9725 -1.9525,-1.6 -0.4775,-0.47625 -0.88875,-1.01375 -1.24,-1.5925 -0.73125,-0.4325 -1.38875,-0.9725 -1.95375,-1.60125 -0.47625,-0.47625 -0.88875,-1.01375 -1.23875,-1.5925 -0.7325,-0.43125 -1.38875,-0.97125 -1.95375,-1.6 -0.47625,-0.47625 -0.88875,-1.01375 -1.24,-1.59375 -0.73125,-0.43 -1.38875,-0.97125 -1.9525,-1.6 -0.4775,-0.475 -0.89,-1.01375 -1.24,-1.5925 -0.7325,-0.43125 -1.38875,-0.97125 -1.95375,-1.6 -0.47625,-0.475 -0.88875,-1.01375 -1.24,-1.59375 -0.73125,-0.43 -1.38875,-0.97125 -1.95375,-1.6 -0.47625,-0.475 -0.8875,-1.01375 -1.23875,-1.5925 -0.73125,-0.43125 -1.38875,-0.97125 -1.95375,-1.6 -0.4775,-0.47625 -0.88875,-1.01375 -1.24,-1.5925 -0.73125,-0.43125 -1.3875,-0.9725 -1.95375,-1.6 -0.54,-0.54 -1.0025,-1.155 -1.38,-1.825 -1.335,-0.75 -2.44125,-1.85875 -3.1925,-3.1925 -1.335,-0.75125 -2.4425,-1.85875 -3.19375,-3.19375 -1.335,-0.75125 -2.4425,-1.85875 -3.1925,-3.19375 -1.335,-0.75 -2.4425,-1.8575 -3.19375,-3.1925 -1.335,-0.75125 -2.4425,-1.85875 -3.1925,-3.1925 -1.335,-0.75125 -2.4425,-1.85875 -3.19375,-3.19375 -1.33375,-0.75 -2.44125,-1.8575 -3.1925,-3.1925 -1.335,-0.75125 -2.4425,-1.85875 -3.1925,-3.19375 -1.335,-0.75 -2.4425,-1.8575 -3.19375,-3.1925 -1.335,-0.75125 -2.4425,-1.85875 -3.1925,-3.1925 -1.335,-0.75125 -2.4425,-1.85875 -3.19375,-3.19375 -1.335,-0.75125 -2.4425,-1.85875 -3.1925,-3.1925 -1.335,-0.75125 -2.4425,-1.85875 -3.19375,-3.19375 -1.335,-0.75125 -2.4425,-1.85875 -3.1925,-3.1925 -1.335,-0.75125 -2.4425,-1.85875 -3.19375,-3.19375 -1.335,-0.75125 -2.44125,-1.85875 -3.1925,-3.1925 -1.335,-0.75125 -2.4425,-1.85875 -3.19375,-3.19375 -1.33375,-0.75 -2.44125,-1.8575 -3.1925,-3.1925 -2.53625,-1.42625 -4.25875,-4.14125 -4.25875,-7.24625 0,-4.5175 3.735,-8.25375 8.31125,-8.25375 l 15.66875,0 c -0.20375,-0.275 -0.395,-0.56 -0.5625,-0.86125 -1.335,-0.75 -2.4425,-1.8575 -3.19375,-3.1925 -1.335,-0.75125 -2.4425,-1.85875 -3.1925,-3.1925 -1.335,-0.75125 -2.4425,-1.85875 -3.19375,-3.19375 -1.335,-0.75125 -2.4425,-1.85875 -3.1925,-3.1925 -1.335,-0.75125 -2.4425,-1.85875 -3.19375,-3.19375 -1.33375,-0.75125 -2.44125,-1.85875 -3.1925,-3.1925 -2.53625,-1.42625 -4.25875,-4.14125 -4.25875,-7.24625 0,-4.59 3.735,-8.2525 8.31125,-8.2525 l 15.66875,0 c -0.20375,-0.27625 -0.395,-0.56125 -0.5625,-0.86125 -1.335,-0.75125 -2.4425,-1.85875 -3.19375,-3.19375 -1.335,-0.75 -2.4425,-1.8575 -3.1925,-3.1925 -1.335,-0.75125 -2.4425,-1.85875 -3.19375,-3.1925 -1.335,-0.75125 -2.4425,-1.85875 -3.1925,-3.19375 -1.335,-0.75125 -2.4425,-1.85875 -3.19375,-3.19375 -1.335,-0.75 -2.4425,-1.8575 -3.1925,-3.1925 -2.53625,-1.42625 -4.25875,-4.14 -4.25875,-7.245 0,-4.59 3.735,-8.26875 8.31125,-8.26875 l 15.6575,0 c -0.2,-0.27125 -0.38625,-0.55125 -0.55125,-0.84625 -1.335,-0.75125 -2.4425,-1.8575 -3.19375,-3.1925 -1.335,-0.75125 -2.4425,-1.85875 -3.1925,-3.19375 -1.335,-0.75125 -2.4425,-1.85875 -3.19375,-3.1925 -1.335,-0.75125 -2.4425,-1.85875 -3.1925,-3.19375 -1.335,-0.75125 -2.4425,-1.85875 -3.19375,-3.1925 -1.335,-0.75125 -2.4425,-1.85875 -3.1925,-3.19375 -2.53625,-1.42625 -4.25875,-4.14 -4.25875,-7.245 0,-4.59 3.735,-8.2675 8.31125,-8.2675 l 24.8325,0 c 3.1125,0 5.83375,1.73125 7.2575,4.26375 1.33625,0.75375 2.445,1.86125 3.19375,3.19375 1.33625,0.7525 2.44375,1.86125 3.1925,3.1925 1.33625,0.75375 2.445,1.86125 3.19375,3.19375 1.26875,0.715 2.3275,1.7525 3.07125,2.995 l 0,-24.70125 0.11625,-0.0575 24.5925,0 c -1.22375,-0.74125 -2.24,-1.7875 -2.94375,-3.04 -1.33625,-0.745 -2.44125,-1.855 -3.1925,-3.1925 -1.3375,-0.745 -2.44125,-1.855 -3.1925,-3.19375 -1.3375,-0.745 -2.4425,-1.855 -3.19375,-3.1925 -2.5475,-1.42 -4.26625,-4.155 -4.26625,-7.29125 l 0,-24.8175 c 0,-4.59 3.67875,-8.32625 8.25375,-8.32625 3.11125,0 5.81875,1.71875 7.24375,4.25375 1.335,0.74875 2.44125,1.85625 3.1925,3.1925 1.33625,0.75 2.4425,1.8575 3.19375,3.1925 1.335,0.75 2.44125,1.8575 3.1925,3.19375 1.335,0.75 2.4425,1.8575 3.1925,3.1925 1.33625,0.75 2.4425,1.8575 3.19375,3.19375 1.335,0.74875 2.4425,1.8575 3.1925,3.1925 0.30125,0.16875 0.5875,0.36 0.86375,0.56375 l 0,-15.64875 c 0,-4.59 3.73625,-8.32625 8.31125,-8.32625 3.1025,0 5.7825,1.70875 7.1975,4.23125 1.33875,0.74625 2.4425,1.855 3.19375,3.19375 1.3375,0.74625 2.4425,1.855 3.1925,3.1925 1.33875,0.74625 2.4425,1.855 3.1925,3.19375 1.33875,0.745 2.4425,1.855 3.19375,3.1925 1.3375,0.74625 2.4425,1.855 3.1925,3.1925 1.33875,0.74625 2.44375,1.85625 3.19375,3.19375 0.2975,0.16625 0.57875,0.35375 0.85125,0.55375 l 0,-15.6175 c 0,-4.59 3.73625,-8.32625 8.31125,-8.32625 3.06875,0 5.76625,1.715 7.1925,4.245 1.3325,0.7475 2.44,1.85625 3.19375,3.1925 1.33125,0.74875 2.43875,1.85625 3.1925,3.1925 1.3325,0.74875 2.44,1.8575 3.19375,3.19375 1.33125,0.74875 2.43875,1.85625 3.1925,3.1925 1.3325,0.74875 2.44,1.8575 3.19375,3.19375 1.33125,0.74875 2.43875,1.85625 3.1925,3.19375 0.29875,0.16625 0.5825,0.35625 0.85625,0.55875 l 0,-15.63625 c 0,-4.59 3.735,-8.32625 8.32625,-8.32625 3.10125,0 5.81375,1.72 7.24125,4.25625 1.33375,0.75 2.44125,1.8575 3.1925,3.19375 1.335,0.75 2.4425,1.8575 3.19375,3.1925 1.33375,0.75 2.44125,1.8575 3.1925,3.19375 1.335,0.75 2.44125,1.8575 3.19375,3.1925 1.33375,0.75 2.44125,1.8575 3.1925,3.1925 1.335,0.75125 2.44125,1.8575 3.19375,3.19375 1.33375,0.75 2.44125,1.8575 3.1925,3.1925 1.33375,0.75125 2.44125,1.8575 3.1925,3.19375 1.335,0.75 2.4425,1.8575 3.19375,3.1925 1.335,0.75125 2.44125,1.8575 3.19375,3.19375 1.33375,0.75 2.44125,1.8575 3.1925,3.1925 1.33375,0.75 2.44125,1.8575 3.1925,3.19375 1.335,0.75 2.44125,1.8575 3.19375,3.1925 1.33375,0.75 2.44125,1.8575 3.1925,3.19375 1.335,0.75 2.4425,1.8575 3.19375,3.1925 1.33375,0.75 2.44125,1.8575 3.1925,3.1925 1.335,0.75125 2.44125,1.8575 3.19375,3.19375 1.33375,0.75 2.44125,1.8575 3.1925,3.1925 0.90625,0.51 1.71,1.18125 2.3675,1.98 0.36125,0.39875 0.6825,0.8325 0.96125,1.29625 0.85,0.49875 1.60875,1.13875 2.23125,1.89625 0.36125,0.4 0.68375,0.83375 0.96125,1.29625 0.85,0.5 1.60875,1.13875 2.2325,1.8975 0.36125,0.39875 0.6825,0.8325 0.96125,1.29625 0.84875,0.49875 1.6075,1.13875 2.23125,1.89625 0.36125,0.4 0.68375,0.8325 0.9625,1.29625 0.84875,0.5 1.6075,1.13875 2.23,1.89625 0.3625,0.4 0.68375,0.83375 0.9625,1.2975 0.85,0.49875 1.6075,1.13875 2.23125,1.89625 0.36125,0.4 0.68375,0.8325 0.96125,1.29625 0.85,0.5 1.60875,1.13875 2.2325,1.8975 0.36125,0.39875 0.6825,0.8325 0.96125,1.295 0.85,0.5 1.6075,1.14 2.23125,1.8975 0.36125,0.4 0.68375,0.8325 0.96125,1.29625 0.85,0.5 1.60875,1.13875 2.23125,1.89625 0.36125,0.4 0.68375,0.8325 0.9625,1.2975 0.84875,0.49875 1.6075,1.1375 2.23125,1.89625 0.36125,0.39875 0.6825,0.8325 0.96125,1.29625 0.85,0.49875 1.60875,1.13875 2.23125,1.89625 0.3625,0.4 0.68375,0.83375 0.96125,1.2975 0.85,0.49875 1.60875,1.1375 2.2325,1.89625 0.36125,0.39875 0.68375,0.8325 0.96125,1.29625 0.85,0.49875 1.60875,1.13875 2.23125,1.89625 0.36125,0.4 0.68375,0.83375 0.9625,1.29625 0.84875,0.5 1.6075,1.13875 2.23125,1.8975 0.36125,0.39875 0.6825,0.8325 0.96125,1.29625 0.84875,0.49875 1.6075,1.13875 2.23125,1.89625 0.36125,0.4 0.68375,0.8325 0.9625,1.29625 0.84875,0.5 1.6075,1.13875 2.23125,1.8975 0.36125,0.39875 0.6825,0.8325 0.96125,1.29625 0.85,0.49875 1.6075,1.13875 2.23125,1.89625 0.36125,0.4 0.68375,0.8325 0.96125,1.29625 0.85,0.5 1.60875,1.13875 2.2325,1.8975 0.36125,0.39875 0.6825,0.8325 0.96125,1.29625 0.85,0.49875 1.6075,1.13875 2.23125,1.89625 0.36125,0.4 0.68375,0.8325 0.96125,1.29625 0.85,0.5 1.60875,1.13875 2.23125,1.89625 0.36125,0.4 0.68375,0.83375 0.9625,1.2975 0.84875,0.49875 1.6075,1.13875 2.23125,1.89625 0.36125,0.4 0.68375,0.8325 0.96125,1.29625 0.85,0.49875 1.60875,1.13875 2.23125,1.89625 0.3625,0.4 0.68375,0.83375 0.96125,1.29625 0.85,0.5 1.60875,1.13875 2.2325,1.8975 0.36125,0.4 0.68375,0.8325 0.96125,1.29625 0.85,0.49875 1.6075,1.13875 2.23125,1.89625 0.36125,0.4 0.68375,0.83375 0.9625,1.29625 0.84875,0.5 1.6075,1.13875 2.23,1.89625 0.3625,0.4 0.68375,0.83375 0.9625,1.2975 0.85,0.49875 1.60875,1.13875 2.23125,1.89625 0.36125,0.4 0.68375,0.8325 0.9625,1.29625 0.84875,0.5 1.6075,1.13875 2.23125,1.8975 0.36125,0.39875 0.6825,0.8325 0.96125,1.29625 0.85,0.49875 1.6075,1.13875 2.23125,1.89625 0.36125,0.4 0.68375,0.8325 0.96125,1.29625 0.85,0.5 1.60875,1.13875 2.23125,1.89625 0.3625,0.4 0.68375,0.83375 0.9625,1.2975 0.85,0.49875 1.6075,1.13875 2.23125,1.89625 0.36125,0.4 0.68375,0.8325 0.96125,1.29625 0.85,0.5 1.60875,1.13875 2.23125,1.89625 0.36125,0.4 0.68375,0.83375 0.9625,1.2975 0.84875,0.49875 1.6075,1.13875 2.23125,1.89625 0.36125,0.4 0.68375,0.8325 0.96125,1.29625 0.85,0.49875 1.60875,1.13875 2.2325,1.8975 0.36125,0.39875 0.6825,0.8325 0.96,1.29625 0.85,0.49875 1.60875,1.1375 2.2325,1.89625 0.36125,0.39875 0.68375,0.8325 0.96125,1.29625 0.85,0.49875 1.6075,1.13875 2.23125,1.89625 0.36125,0.4 0.68375,0.83375 0.9625,1.29625 0.84875,0.5 1.6075,1.13875 2.23,1.89625 0.3625,0.4 0.68375,0.83375 0.9625,1.2975 0.85,0.49875 1.60875,1.13875 2.23125,1.89625 0.36125,0.4 0.68375,0.83375 0.96125,1.29625 0.85,0.5 1.60875,1.14 2.2325,1.8975 0.36125,0.4 0.6825,0.8325 0.96125,1.29625 0.84875,0.49875 1.6075,1.1375 2.23125,1.89625 0.36125,0.39875 0.68375,0.8325 0.96125,1.29625 0.85,0.5 1.60875,1.13875 2.23125,1.89625 0.3625,0.4 0.68375,0.83375 0.9625,1.2975 0.1475,0.0863 0.27375,0.2 0.41625,0.295 l 0,118.11125 c 0,22.15625 -17.96125,40.1175 -40.11625,40.1175" />
    <path
       id="path64"
       style="fill:#393536;fill-opacity:1;fill-rule:nonzero;stroke:none"
       d="m 476.62973,202.9322 -0.0575,-0.0575 -138.80125,0 -0.115,0.0575 0,138.85875 0.115,0.0575 138.80125,0 0.0575,-0.0575 0,-138.85875" />
    <path
       id="path66"
       style="fill:#393536;fill-opacity:1;fill-rule:nonzero;stroke:none"
       d="m 496.53973,227.37345 24.8325,0 c 4.575,0 8.31125,-3.73625 8.31125,-8.31125 0,-4.5325 -3.6775,-8.2675 -8.31125,-8.2675 l -24.8325,0 c -4.59,0 -8.32625,3.6775 -8.32625,8.2675 0,4.575 3.73625,8.31125 8.32625,8.31125" />
    <path
       id="path68"
       style="fill:#393536;fill-opacity:1;fill-rule:nonzero;stroke:none"
       d="m 521.37223,246.31345 -24.8325,0 c -4.59,0 -8.32625,3.735 -8.32625,8.2675 0,4.575 3.73625,8.31 8.32625,8.31 l 24.8325,0 c 4.575,0 8.31125,-3.735 8.31125,-8.31 0,-4.59 -3.73625,-8.2675 -8.31125,-8.2675" />
    <path
       id="path70"
       style="fill:#393536;fill-opacity:1;fill-rule:nonzero;stroke:none"
       d="m 521.37223,281.84595 -24.8325,0 c -4.59,0 -8.32625,3.66375 -8.32625,8.2525 0,4.57625 3.73625,8.31125 8.32625,8.31125 l 24.8325,0 c 4.575,0 8.31125,-3.735 8.31125,-8.31125 0,-4.5325 -3.73625,-8.2525 -8.31125,-8.2525" />
    <path
       id="path72"
       style="fill:#393536;fill-opacity:1;fill-rule:nonzero;stroke:none"
       d="m 521.37223,317.36345 -24.8325,0 c -4.59,0 -8.32625,3.73625 -8.32625,8.25375 0,4.575 3.73625,8.31125 8.32625,8.31125 l 24.8325,0 c 4.575,0 8.31125,-3.73625 8.31125,-8.31125 0,-4.5175 -3.73625,-8.25375 -8.31125,-8.25375" />
    <path
       id="path74"
       style="fill:#393536;fill-opacity:1;fill-rule:nonzero;stroke:none"
       d="m 362.13973,182.9647 0,-24.81875 c 0,-4.58875 -3.72125,-8.325 -8.31125,-8.325 -4.575,0 -8.25375,3.73625 -8.25375,8.325 l 0,24.81875 c 0,4.59 3.67875,8.325 8.25375,8.325 4.59,0 8.31125,-3.735 8.31125,-8.325" />
    <path
       id="path76"
       style="fill:#393536;fill-opacity:1;fill-rule:nonzero;stroke:none"
       d="m 381.09473,158.14595 0,24.81875 c 0,4.59 3.735,8.325 8.31,8.325 4.59125,0 8.26875,-3.735 8.26875,-8.325 l 0,-24.81875 c 0,-4.58875 -3.6775,-8.325 -8.26875,-8.325 -4.575,0 -8.31,3.73625 -8.31,8.325" />
    <path
       id="path78"
       style="fill:#393536;fill-opacity:1;fill-rule:nonzero;stroke:none"
       d="m 416.61223,158.14595 0,24.81875 c 0,4.59 3.73625,8.325 8.31125,8.325 4.5325,0 8.26875,-3.735 8.26875,-8.325 l 0,-24.81875 c 0,-4.58875 -3.73625,-8.325 -8.26875,-8.325 -4.575,0 -8.31125,3.73625 -8.31125,8.325" />
    <path
       id="path80"
       style="fill:#393536;fill-opacity:1;fill-rule:nonzero;stroke:none"
       d="m 452.13098,158.14595 0,24.81875 c 0,4.59 3.735,8.325 8.325,8.325 4.57625,0 8.3125,-3.735 8.3125,-8.325 l 0,-24.81875 c 0,-4.58875 -3.73625,-8.325 -8.3125,-8.325 -4.59,0 -8.325,3.73625 -8.325,8.325" />
    <path
       id="path82"
       style="fill:#393536;fill-opacity:1;fill-rule:nonzero;stroke:none"
       d="m 362.13973,386.59095 0,-24.8325 c 0,-4.57625 -3.72125,-8.31125 -8.31125,-8.31125 -4.575,0 -8.25375,3.735 -8.25375,8.31125 l 0,24.8325 c 0,4.575 3.67875,8.31125 8.25375,8.31125 4.59,0 8.31125,-3.73625 8.31125,-8.31125" />
    <path
       id="path84"
       style="fill:#393536;fill-opacity:1;fill-rule:nonzero;stroke:none"
       d="m 381.09473,361.75845 0,24.8325 c 0,4.575 3.735,8.31125 8.31,8.31125 4.59125,0 8.26875,-3.73625 8.26875,-8.31125 l 0,-24.8325 c 0,-4.57625 -3.6775,-8.31125 -8.26875,-8.31125 -4.575,0 -8.31,3.735 -8.31,8.31125" />
    <path
       id="path86"
       style="fill:#393536;fill-opacity:1;fill-rule:nonzero;stroke:none"
       d="m 416.61223,361.75845 0,24.8325 c 0,4.575 3.73625,8.31125 8.31125,8.31125 4.5325,0 8.26875,-3.73625 8.26875,-8.31125 l 0,-24.8325 c 0,-4.57625 -3.73625,-8.31125 -8.26875,-8.31125 -4.575,0 -8.31125,3.735 -8.31125,8.31125" />
    <path
       id="path88"
       style="fill:#393536;fill-opacity:1;fill-rule:nonzero;stroke:none"
       d="m 452.13098,361.75845 0,24.8325 c 0,4.575 3.735,8.31125 8.325,8.31125 4.57625,0 8.3125,-3.73625 8.3125,-8.31125 l 0,-24.8325 c -0.0587,-4.57625 -3.73625,-8.31125 -8.3125,-8.31125 -4.59,0 -8.325,3.735 -8.325,8.31125" />
    <path
       id="path90"
       style="fill:#393536;fill-opacity:1;fill-rule:nonzero;stroke:none"
       d="m 292.91348,227.37345 24.89,0 c 4.5175,0 8.25375,-3.73625 8.25375,-8.31125 0,-4.5325 -3.73625,-8.2675 -8.31125,-8.2675 l -24.8325,0 c -4.57625,0 -8.31125,3.6775 -8.31125,8.2675 0,4.575 3.735,8.31125 8.31125,8.31125" />
    <path
       id="path92"
       style="fill:#393536;fill-opacity:1;fill-rule:nonzero;stroke:none"
       d="m 317.74598,246.31345 -24.8325,0 c -4.57625,0 -8.31125,3.6775 -8.31125,8.2675 0,4.575 3.735,8.31 8.31125,8.31 l 24.8325,0 c 4.575,0 8.31125,-3.735 8.31125,-8.31 0,-4.59 -3.73625,-8.2675 -8.31125,-8.2675" />
    <path
       id="path94"
       style="fill:#393536;fill-opacity:1;fill-rule:nonzero;stroke:none"
       d="m 317.74598,281.84595 -24.8325,0 c -4.57625,0 -8.31125,3.66375 -8.31125,8.2525 0,4.57625 3.735,8.31125 8.31125,8.31125 l 24.8325,0 c 4.575,0 8.31125,-3.735 8.31125,-8.31125 0,-4.5325 -3.73625,-8.2525 -8.31125,-8.2525" />
    <path
       id="path96"
       style="fill:#393536;fill-opacity:1;fill-rule:nonzero;stroke:none"
       d="m 317.74598,317.36345 -24.8325,0 c -4.57625,0 -8.31125,3.73625 -8.31125,8.25375 0,4.575 3.735,8.31125 8.31125,8.31125 l 24.8325,0 c 4.575,0 8.31125,-3.73625 8.31125,-8.31125 0,-4.5175 -3.73625,-8.25375 -8.31125,-8.25375" />
  </g>
</svg>
